<svg width="15" height="14" viewBox="0 0 15 14" fill="none" xmlns="http://www.w3.org/2000/svg">
<path d="M4.28577 1.55237L4.80461 0.697502L4.28576 0.382594L3.76692 0.697502L4.28577 1.55237ZM7.28577 3.37318L6.76692 4.22804L7.28577 4.54295L7.80462 4.22804L7.28577 3.37318ZM1.28577 3.37318L0.766917 2.51831L0.285767 2.81034V3.37318H1.28577ZM1.28577 7.27491H0.285767V7.73644L0.63697 8.03587L1.28577 7.27491ZM7.28577 12.3905L6.63697 13.1515L7.28577 13.7046L7.93456 13.1515L7.28577 12.3905ZM13.2858 7.27491L13.9346 8.03587L14.2858 7.73644V7.27491H13.2858ZM13.2858 3.37318H14.2858V2.81034L13.8046 2.51831L13.2858 3.37318ZM10.2858 1.55237L10.8046 0.697502L10.2858 0.382594L9.76692 0.697502L10.2858 1.55237ZM3.76692 2.40723L6.76692 4.22804L7.80462 2.51831L4.80461 0.697502L3.76692 2.40723ZM1.80462 4.22804L4.80461 2.40723L3.76692 0.697502L0.766917 2.51831L1.80462 4.22804ZM2.28577 7.27491V3.37318H0.285767V7.27491H2.28577ZM7.93456 11.6296L1.93456 6.51395L0.63697 8.03587L6.63697 13.1515L7.93456 11.6296ZM7.93456 13.1515L13.9346 8.03587L12.637 6.51395L6.63697 11.6296L7.93456 13.1515ZM14.2858 7.27491V3.37318H12.2858V7.27491H14.2858ZM13.8046 2.51831L10.8046 0.697502L9.76692 2.40723L12.7669 4.22804L13.8046 2.51831ZM9.76692 0.697502L6.76692 2.51831L7.80462 4.22804L10.8046 2.40723L9.76692 0.697502Z" fill="white"/>
</svg>
